<svg xmlns="http://www.w3.org/2000/svg" width="13.155" height="13.155" viewBox="0 0 13.155 13.155">
  <path id="calender-25" d="M11.922,13.155H1.233A1.233,1.233,0,0,1,0,11.922V2.878A1.233,1.233,0,0,1,1.233,1.644h.822a1.644,1.644,0,1,0,3.289,0H7.811a1.644,1.644,0,0,0,3.289,0h.822a1.233,1.233,0,0,1,1.233,1.233v9.044A1.233,1.233,0,0,1,11.922,13.155Zm-.411-7.811a.411.411,0,0,0-.411-.411H2.056a.411.411,0,0,0-.411.411V11.1a.411.411,0,0,0,.411.411H11.1a.411.411,0,0,0,.411-.411ZM9.455,2.467a.822.822,0,0,1-.822-.822V.822a.822.822,0,1,1,1.644,0v.822A.822.822,0,0,1,9.455,2.467Zm-5.755,0a.822.822,0,0,1-.822-.822V.822a.822.822,0,1,1,1.644,0v.822A.822.822,0,0,1,3.7,2.467Z"/>
</svg>
